<svg width="36" height="36" viewBox="0 0 36 36" fill="none" xmlns="http://www.w3.org/2000/svg">
<path fill-rule="evenodd" clip-rule="evenodd" d="M5.9545 5.9545C6.39384 5.51517 7.10616 5.51517 7.5455 5.9545L18 16.409L28.4545 5.95451C28.8938 5.51517 29.6062 5.51517 30.0455 5.95451C30.4848 6.39385 30.4848 7.10616 30.0455 7.5455L19.591 18L30.0455 28.4545C30.4848 28.8938 30.4848 29.6062 30.0455 30.0455C29.6062 30.4848 28.8938 30.4848 28.4545 30.0455L18 19.591L7.5455 30.0455C7.10616 30.4848 6.39384 30.4848 5.9545 30.0455C5.51517 29.6062 5.51517 28.8938 5.9545 28.4545L16.409 18L5.9545 7.5455C5.51517 7.10616 5.51517 6.39384 5.9545 5.9545Z" fill="#111827"/>
</svg>
