<svg width="39" height="40" viewBox="0 0 39 40" fill="none" xmlns="http://www.w3.org/2000/svg">
<path fill-rule="evenodd" clip-rule="evenodd" d="M19.4641 5.02443C20.6025 5.02794 21.6472 5.65452 22.1847 6.65619L30.8957 22.8881C31.436 23.8949 31.3763 25.117 30.7403 26.0665C30.1044 27.016 28.9959 27.5382 27.8574 27.4245C20.8183 26.7219 16.9563 27.3475 14.5473 28.4338C12.2317 29.478 10.8676 31.1101 9.13667 33.6319C8.16981 35.0405 6.24209 35.3999 4.831 34.4348C3.41991 33.4696 3.05979 31.5453 4.02666 30.1367C5.87688 27.4411 8.04562 24.5804 11.9971 22.7986C14.7969 21.536 18.2715 20.9086 22.8254 20.9447L19.4344 14.626L16.7555 19.5447C15.9384 21.0449 14.0578 21.5998 12.555 20.7842C11.0522 19.9685 10.4963 18.0912 11.3133 16.5911L16.7335 6.63939C17.2772 5.64105 18.3258 5.02092 19.4641 5.02443Z" fill="#1E3A8A"/>
<path fill-rule="evenodd" clip-rule="evenodd" d="M30.0956 27.7071C31.605 26.9036 33.4811 27.4736 34.286 28.9802L35.0603 30.4295C35.8653 31.9361 35.2943 33.8089 33.785 34.6125C32.2757 35.416 30.3996 34.8461 29.5946 33.3394L28.8203 31.8901C28.0153 30.3835 28.5863 28.5107 30.0956 27.7071Z" fill="#1E3A8A"/>
</svg>
