<svg width="117" height="120" viewBox="0 0 117 120" fill="none" xmlns="http://www.w3.org/2000/svg">
<path fill-rule="evenodd" clip-rule="evenodd" d="M58.6651 15.0723C62.0802 15.0828 65.2142 16.9626 66.8269 19.9676L92.9599 68.6633C94.5808 71.6836 94.4016 75.3501 92.4937 78.1985C90.5859 81.047 87.2603 82.6136 83.8448 82.2726C62.7277 80.1646 51.1415 82.0416 43.9145 85.3005C36.9678 88.4331 32.8756 93.3292 27.6827 100.895C24.7821 105.12 18.999 106.199 14.7657 103.303C10.5324 100.408 9.45208 94.6349 12.3527 90.4091C17.9033 82.3225 24.4096 73.7404 36.2641 68.3947C44.6635 64.6071 55.0872 62.7248 68.749 62.8332L58.576 43.877L50.5391 58.6331C48.0879 63.1336 42.4461 64.7984 37.9377 62.3515C33.4292 59.9047 31.7615 54.2727 34.2127 49.7723L50.4732 19.9172C52.1044 16.9222 55.2501 15.0618 58.6651 15.0723Z" fill="#1E3A8A"/>
<path fill-rule="evenodd" clip-rule="evenodd" d="M90.5597 83.1204C95.0876 80.7097 100.716 82.4197 103.131 86.9397L105.454 91.2875C107.869 95.8075 106.156 101.426 101.628 103.837C97.0998 106.247 91.4715 104.537 89.0566 100.017L86.7336 95.6694C84.3187 91.1494 86.0317 85.531 90.5597 83.1204Z" fill="#1E3A8A"/>
</svg>
