<svg width="172" height="41" viewBox="0 0 172 41" fill="none" xmlns="http://www.w3.org/2000/svg">
<path fill-rule="evenodd" clip-rule="evenodd" d="M19.4641 5.52443C20.6025 5.52794 21.6472 6.15452 22.1847 7.15619L30.8957 23.3881C31.436 24.3949 31.3763 25.617 30.7403 26.5665C30.1044 27.516 28.9959 28.0382 27.8574 27.9245C20.8183 27.2219 16.9563 27.8475 14.5473 28.9338C12.2317 29.978 10.8676 31.6101 9.13667 34.1319C8.16981 35.5405 6.24209 35.8999 4.831 34.9348C3.41991 33.9696 3.05979 32.0453 4.02666 30.6367C5.87688 27.9411 8.04562 25.0804 11.9971 23.2986C14.7969 22.036 18.2715 21.4086 22.8254 21.4447L19.4344 15.126L16.7555 20.0447C15.9384 21.5449 14.0578 22.0998 12.555 21.2842C11.0522 20.4685 10.4963 18.5912 11.3133 17.0911L16.7335 7.13939C17.2772 6.14105 18.3258 5.52092 19.4641 5.52443Z" fill="#1E3A8A"/>
<path fill-rule="evenodd" clip-rule="evenodd" d="M30.0956 28.2071C31.605 27.4036 33.4811 27.9736 34.286 29.4802L35.0603 30.9295C35.8653 32.4361 35.2943 34.3089 33.785 35.1125C32.2757 35.916 30.3996 35.3461 29.5946 33.8394L28.8203 32.3901C28.0153 30.8835 28.5863 29.0107 30.0956 28.2071Z" fill="#1E3A8A"/>
<path d="M158.03 28.1361L161.895 13.4316H166.726L170.592 28.1361H167.735L166.936 24.9011H161.685L160.887 28.1361H158.03ZM162.336 22.3383H166.285L164.5 15.1752H164.122L162.336 22.3383Z" fill="#1E3A8A"/>
<path d="M151.271 28.4303C149.451 28.4303 148.008 27.9262 146.944 26.9179C145.88 25.8955 145.347 24.4391 145.347 22.5485V19.0195C145.347 17.1289 145.88 15.6795 146.944 14.6712C148.008 13.6488 149.451 13.1377 151.271 13.1377C153.078 13.1377 154.471 13.6348 155.451 14.6291C156.446 15.6094 156.943 16.9609 156.943 18.6834V18.8094H154.212V18.5993C154.212 17.7311 153.967 17.0169 153.477 16.4567C153.001 15.8965 152.266 15.6164 151.271 15.6164C150.291 15.6164 149.521 15.9175 148.961 16.5197C148.4 17.1219 148.12 17.9411 148.12 18.9775V22.5906C148.12 23.6129 148.4 24.4321 148.961 25.0483C149.521 25.6505 150.291 25.9516 151.271 25.9516C152.266 25.9516 153.001 25.6715 153.477 25.1113C153.967 24.5371 154.212 23.8229 154.212 22.9687V22.5906H156.943V22.8846C156.943 24.6072 156.446 25.9656 155.451 26.9599C154.471 27.9402 153.078 28.4303 151.271 28.4303Z" fill="#1E3A8A"/>
<path d="M140.145 28.1361V13.4316H142.918V28.1361H140.145Z" fill="#1E3A8A"/>
<path d="M131.198 28.1361V15.9524H126.913V13.4316H138.257V15.9524H133.971V28.1361H131.198Z" fill="#1E3A8A"/>
<path d="M113.723 28.1361V13.4316H118.995L121.915 26.2455H122.293V13.4316H125.024V28.1361H119.751L116.832 15.3222H116.453V28.1361H113.723Z" fill="#1E3A8A"/>
<path d="M102.091 28.1361V13.4316H111.544V15.9524H104.864V19.4605H110.956V21.9812H104.864V25.6153H111.67V28.1361H102.091Z" fill="#1E3A8A"/>
<path d="M93.6493 28.4302C92.4449 28.4302 91.4086 28.2131 90.5403 27.779C89.6861 27.3308 89.0279 26.7006 88.5658 25.8884C88.1176 25.0622 87.8936 24.0889 87.8936 22.9685V13.4316H90.6664V23.0525C90.6664 23.9488 90.9185 24.656 91.4226 25.1742C91.9408 25.6923 92.683 25.9514 93.6493 25.9514C94.6156 25.9514 95.3508 25.6923 95.855 25.1742C96.3731 24.656 96.6322 23.9488 96.6322 23.0525V13.4316H99.405V22.9685C99.405 24.0889 99.174 25.0622 98.7118 25.8884C98.2637 26.7006 97.6055 27.3308 96.7372 27.779C95.883 28.2131 94.8537 28.4302 93.6493 28.4302Z" fill="#1E3A8A"/>
<path d="M77.0027 28.1361V13.4316H79.7755V25.6153H86.4976V28.1361H77.0027Z" fill="#1E3A8A"/>
<path d="M65.7815 28.1361V13.4316H75.0243V15.9524H68.5543V19.5025H74.5201V22.0232H68.5543V28.1361H65.7815Z" fill="#1E3A8A"/>
<path d="M51.3708 28.1361V25.6993H53.3034V15.8684H51.3708V13.4316H57.4207C59.3953 13.4316 60.8937 13.9358 61.916 14.9441C62.9523 15.9384 63.4705 17.4228 63.4705 19.3974V22.1703C63.4705 24.1449 62.9523 25.6363 61.916 26.6446C60.8937 27.6389 59.3953 28.1361 57.4207 28.1361H51.3708ZM56.0763 25.6153H57.4627C58.583 25.6153 59.4023 25.3212 59.9204 24.7331C60.4386 24.1449 60.6977 23.3186 60.6977 22.2543V19.3134C60.6977 18.2351 60.4386 17.4088 59.9204 16.8347C59.4023 16.2465 58.583 15.9524 57.4627 15.9524H56.0763V25.6153Z" fill="#1E3A8A"/>
<path d="M37.469 28.1361L41.3342 13.4316H46.1656L50.0308 28.1361H47.1739L46.3757 24.9011H41.1241L40.3259 28.1361H37.469ZM41.7753 22.3383H45.7245L43.9389 15.1752H43.5608L41.7753 22.3383Z" fill="#1E3A8A"/>
</svg>
