<svg width="24" height="25" viewBox="0 0 24 25" fill="none" xmlns="http://www.w3.org/2000/svg">
<path fill-rule="evenodd" clip-rule="evenodd" d="M11.4697 5.36274C11.7626 5.06984 12.2374 5.06984 12.5303 5.36274L16.2803 9.11274C16.5732 9.40563 16.5732 9.8805 16.2803 10.1734C15.9874 10.4663 15.5126 10.4663 15.2197 10.1734L12 6.95373L8.78033 10.1734C8.48744 10.4663 8.01256 10.4663 7.71967 10.1734C7.42678 9.8805 7.42678 9.40563 7.71967 9.11274L11.4697 5.36274ZM7.71967 15.1127C8.01256 14.8198 8.48744 14.8198 8.78033 15.1127L12 18.3324L15.2197 15.1127C15.5126 14.8198 15.9874 14.8198 16.2803 15.1127C16.5732 15.4056 16.5732 15.8805 16.2803 16.1734L12.5303 19.9234C12.2374 20.2163 11.7626 20.2163 11.4697 19.9234L7.71967 16.1734C7.42678 15.8805 7.42678 15.4056 7.71967 15.1127Z" fill="#172554"/>
</svg>
