<svg width="1438" height="570" viewBox="0 0 1438 570" fill="none" xmlns="http://www.w3.org/2000/svg">
<path d="M268 107.643C268 56.2801 309.638 14.6426 361 14.6426V14.6426C412.362 14.6426 454 56.2801 454 107.643V107.643C454 159.005 412.362 200.643 361 200.643V200.643C309.638 200.643 268 159.005 268 107.643V107.643Z" fill="#1E40AF"/>
<path d="M305.98 118.143V97.1426H319.18V100.743H309.94V105.813H318.46V109.413H309.94V118.143H305.98ZM322.125 118.143V103.263H325.905V118.143H322.125ZM324.015 101.523C323.335 101.523 322.755 101.303 322.275 100.863C321.815 100.423 321.585 99.8426 321.585 99.1226C321.585 98.4026 321.815 97.8226 322.275 97.3826C322.755 96.9426 323.335 96.7226 324.015 96.7226C324.715 96.7226 325.295 96.9426 325.755 97.3826C326.215 97.8226 326.445 98.4026 326.445 99.1226C326.445 99.8426 326.215 100.423 325.755 100.863C325.295 101.303 324.715 101.523 324.015 101.523ZM330.094 118.143V103.263H333.814V105.213H334.354C334.594 104.693 335.044 104.203 335.704 103.743C336.364 103.263 337.364 103.023 338.704 103.023C339.864 103.023 340.874 103.293 341.734 103.833C342.614 104.353 343.294 105.083 343.774 106.023C344.254 106.943 344.494 108.023 344.494 109.263V118.143H340.714V109.563C340.714 108.443 340.434 107.603 339.874 107.043C339.334 106.483 338.554 106.203 337.534 106.203C336.374 106.203 335.474 106.593 334.834 107.373C334.194 108.133 333.874 109.203 333.874 110.583V118.143H330.094ZM353.2 118.563C352.14 118.563 351.19 118.383 350.35 118.023C349.51 117.643 348.84 117.103 348.34 116.403C347.86 115.683 347.62 114.813 347.62 113.793C347.62 112.773 347.86 111.923 348.34 111.243C348.84 110.543 349.52 110.023 350.38 109.683C351.26 109.323 352.26 109.143 353.38 109.143H357.46V108.303C357.46 107.603 357.24 107.033 356.8 106.593C356.36 106.133 355.66 105.903 354.7 105.903C353.76 105.903 353.06 106.123 352.6 106.563C352.14 106.983 351.84 107.533 351.7 108.213L348.22 107.043C348.46 106.283 348.84 105.593 349.36 104.973C349.9 104.333 350.61 103.823 351.49 103.443C352.39 103.043 353.48 102.843 354.76 102.843C356.72 102.843 358.27 103.333 359.41 104.313C360.55 105.293 361.12 106.713 361.12 108.573V114.123C361.12 114.723 361.4 115.023 361.96 115.023H363.16V118.143H360.64C359.9 118.143 359.29 117.963 358.81 117.603C358.33 117.243 358.09 116.763 358.09 116.163V116.133H357.52C357.44 116.373 357.26 116.693 356.98 117.093C356.7 117.473 356.26 117.813 355.66 118.113C355.06 118.413 354.24 118.563 353.2 118.563ZM353.86 115.503C354.92 115.503 355.78 115.213 356.44 114.633C357.12 114.033 357.46 113.243 357.46 112.263V111.963H353.65C352.95 111.963 352.4 112.113 352 112.413C351.6 112.713 351.4 113.133 351.4 113.673C351.4 114.213 351.61 114.653 352.03 114.993C352.45 115.333 353.06 115.503 353.86 115.503ZM365.924 118.143V103.263H369.644V105.213H370.184C370.424 104.693 370.874 104.203 371.534 103.743C372.194 103.263 373.194 103.023 374.534 103.023C375.694 103.023 376.704 103.293 377.564 103.833C378.444 104.353 379.124 105.083 379.604 106.023C380.084 106.943 380.324 108.023 380.324 109.263V118.143H376.544V109.563C376.544 108.443 376.264 107.603 375.704 107.043C375.164 106.483 374.384 106.203 373.364 106.203C372.204 106.203 371.304 106.593 370.664 107.373C370.024 108.133 369.704 109.203 369.704 110.583V118.143H365.924ZM391.401 118.563C389.961 118.563 388.651 118.263 387.471 117.663C386.311 117.063 385.391 116.193 384.711 115.053C384.031 113.913 383.691 112.533 383.691 110.913V110.493C383.691 108.873 384.031 107.493 384.711 106.353C385.391 105.213 386.311 104.343 387.471 103.743C388.651 103.143 389.961 102.843 391.401 102.843C392.821 102.843 394.041 103.093 395.061 103.593C396.081 104.093 396.901 104.783 397.521 105.663C398.161 106.523 398.581 107.503 398.781 108.603L395.121 109.383C395.041 108.783 394.861 108.243 394.581 107.763C394.301 107.283 393.901 106.903 393.381 106.623C392.881 106.343 392.251 106.203 391.491 106.203C390.731 106.203 390.041 106.373 389.421 106.713C388.821 107.033 388.341 107.523 387.981 108.183C387.641 108.823 387.471 109.613 387.471 110.553V110.853C387.471 111.793 387.641 112.593 387.981 113.253C388.341 113.893 388.821 114.383 389.421 114.723C390.041 115.043 390.731 115.203 391.491 115.203C392.631 115.203 393.491 114.913 394.071 114.333C394.671 113.733 395.051 112.953 395.211 111.993L398.871 112.863C398.611 113.923 398.161 114.893 397.521 115.773C396.901 116.633 396.081 117.313 395.061 117.813C394.041 118.313 392.821 118.563 391.401 118.563ZM408.769 118.563C407.289 118.563 405.979 118.253 404.839 117.633C403.719 116.993 402.839 116.103 402.199 114.963C401.579 113.803 401.269 112.443 401.269 110.883V110.523C401.269 108.963 401.579 107.613 402.199 106.473C402.819 105.313 403.689 104.423 404.809 103.803C405.929 103.163 407.229 102.843 408.709 102.843C410.169 102.843 411.439 103.173 412.519 103.833C413.599 104.473 414.439 105.373 415.039 106.533C415.639 107.673 415.939 109.003 415.939 110.523V111.813H405.109C405.149 112.833 405.529 113.663 406.249 114.303C406.969 114.943 407.849 115.263 408.889 115.263C409.949 115.263 410.729 115.033 411.229 114.573C411.729 114.113 412.109 113.603 412.369 113.043L415.459 114.663C415.179 115.183 414.769 115.753 414.229 116.373C413.709 116.973 413.009 117.493 412.129 117.933C411.249 118.353 410.129 118.563 408.769 118.563ZM405.139 108.993H412.099C412.019 108.133 411.669 107.443 411.049 106.923C410.449 106.403 409.659 106.143 408.679 106.143C407.659 106.143 406.849 106.403 406.249 106.923C405.649 107.443 405.279 108.133 405.139 108.993Z" fill="#EFF6FF"/>
<path d="M454 144.5C454 68.0086 516.009 6 592.5 6V6C668.991 6 731 68.0086 731 144.5V144.5C731 220.991 668.991 283 592.5 283V283C516.009 283 454 220.991 454 144.5V144.5Z" fill="#2563EB"/>
<path d="M514.34 155V137.6H508.22V134H524.42V137.6H518.3V155H514.34ZM531.204 155.42C529.724 155.42 528.414 155.11 527.274 154.49C526.154 153.85 525.274 152.96 524.634 151.82C524.014 150.66 523.704 149.3 523.704 147.74V147.38C523.704 145.82 524.014 144.47 524.634 143.33C525.254 142.17 526.124 141.28 527.244 140.66C528.364 140.02 529.664 139.7 531.144 139.7C532.604 139.7 533.874 140.03 534.954 140.69C536.034 141.33 536.874 142.23 537.474 143.39C538.074 144.53 538.374 145.86 538.374 147.38V148.67H527.544C527.584 149.69 527.964 150.52 528.684 151.16C529.404 151.8 530.284 152.12 531.324 152.12C532.384 152.12 533.164 151.89 533.664 151.43C534.164 150.97 534.544 150.46 534.804 149.9L537.894 151.52C537.614 152.04 537.204 152.61 536.664 153.23C536.144 153.83 535.444 154.35 534.564 154.79C533.684 155.21 532.564 155.42 531.204 155.42ZM527.574 145.85H534.534C534.454 144.99 534.104 144.3 533.484 143.78C532.884 143.26 532.094 143 531.114 143C530.094 143 529.284 143.26 528.684 143.78C528.084 144.3 527.714 144.99 527.574 145.85ZM548.729 155.42C547.289 155.42 545.979 155.12 544.799 154.52C543.639 153.92 542.719 153.05 542.039 151.91C541.359 150.77 541.019 149.39 541.019 147.77V147.35C541.019 145.73 541.359 144.35 542.039 143.21C542.719 142.07 543.639 141.2 544.799 140.6C545.979 140 547.289 139.7 548.729 139.7C550.149 139.7 551.369 139.95 552.389 140.45C553.409 140.95 554.229 141.64 554.849 142.52C555.489 143.38 555.909 144.36 556.109 145.46L552.449 146.24C552.369 145.64 552.189 145.1 551.909 144.62C551.629 144.14 551.229 143.76 550.709 143.48C550.209 143.2 549.579 143.06 548.819 143.06C548.059 143.06 547.369 143.23 546.749 143.57C546.149 143.89 545.669 144.38 545.309 145.04C544.969 145.68 544.799 146.47 544.799 147.41V147.71C544.799 148.65 544.969 149.45 545.309 150.11C545.669 150.75 546.149 151.24 546.749 151.58C547.369 151.9 548.059 152.06 548.819 152.06C549.959 152.06 550.819 151.77 551.399 151.19C551.999 150.59 552.379 149.81 552.539 148.85L556.199 149.72C555.939 150.78 555.489 151.75 554.849 152.63C554.229 153.49 553.409 154.17 552.389 154.67C551.369 155.17 550.149 155.42 548.729 155.42ZM559.317 155V134H563.097V141.95H563.637C563.797 141.63 564.047 141.31 564.387 140.99C564.727 140.67 565.177 140.41 565.737 140.21C566.317 139.99 567.047 139.88 567.927 139.88C569.087 139.88 570.097 140.15 570.957 140.69C571.837 141.21 572.517 141.94 572.997 142.88C573.477 143.8 573.717 144.88 573.717 146.12V155H569.937V146.42C569.937 145.3 569.657 144.46 569.097 143.9C568.557 143.34 567.777 143.06 566.757 143.06C565.597 143.06 564.697 143.45 564.057 144.23C563.417 144.99 563.097 146.06 563.097 147.44V155H559.317ZM577.803 155V140.12H581.523V142.07H582.063C582.303 141.55 582.753 141.06 583.413 140.6C584.073 140.12 585.073 139.88 586.413 139.88C587.573 139.88 588.583 140.15 589.443 140.69C590.323 141.21 591.003 141.94 591.483 142.88C591.963 143.8 592.203 144.88 592.203 146.12V155H588.423V146.42C588.423 145.3 588.143 144.46 587.583 143.9C587.043 143.34 586.263 143.06 585.243 143.06C584.083 143.06 583.183 143.45 582.543 144.23C581.903 144.99 581.583 146.06 581.583 147.44V155H577.803ZM603.369 155.42C601.889 155.42 600.559 155.12 599.379 154.52C598.199 153.92 597.269 153.05 596.589 151.91C595.909 150.77 595.569 149.4 595.569 147.8V147.32C595.569 145.72 595.909 144.35 596.589 143.21C597.269 142.07 598.199 141.2 599.379 140.6C600.559 140 601.889 139.7 603.369 139.7C604.849 139.7 606.179 140 607.359 140.6C608.539 141.2 609.469 142.07 610.149 143.21C610.829 144.35 611.169 145.72 611.169 147.32V147.8C611.169 149.4 610.829 150.77 610.149 151.91C609.469 153.05 608.539 153.92 607.359 154.52C606.179 155.12 604.849 155.42 603.369 155.42ZM603.369 152.06C604.529 152.06 605.489 151.69 606.249 150.95C607.009 150.19 607.389 149.11 607.389 147.71V147.41C607.389 146.01 607.009 144.94 606.249 144.2C605.509 143.44 604.549 143.06 603.369 143.06C602.209 143.06 601.249 143.44 600.489 144.2C599.729 144.94 599.349 146.01 599.349 147.41V147.71C599.349 149.11 599.729 150.19 600.489 150.95C601.249 151.69 602.209 152.06 603.369 152.06ZM614.659 155V134H618.439V155H614.659ZM629.707 155.42C628.227 155.42 626.897 155.12 625.717 154.52C624.537 153.92 623.607 153.05 622.927 151.91C622.247 150.77 621.907 149.4 621.907 147.8V147.32C621.907 145.72 622.247 144.35 622.927 143.21C623.607 142.07 624.537 141.2 625.717 140.6C626.897 140 628.227 139.7 629.707 139.7C631.187 139.7 632.517 140 633.697 140.6C634.877 141.2 635.807 142.07 636.487 143.21C637.167 144.35 637.507 145.72 637.507 147.32V147.8C637.507 149.4 637.167 150.77 636.487 151.91C635.807 153.05 634.877 153.92 633.697 154.52C632.517 155.12 631.187 155.42 629.707 155.42ZM629.707 152.06C630.867 152.06 631.827 151.69 632.587 150.95C633.347 150.19 633.727 149.11 633.727 147.71V147.41C633.727 146.01 633.347 144.94 632.587 144.2C631.847 143.44 630.887 143.06 629.707 143.06C628.547 143.06 627.587 143.44 626.827 144.2C626.067 144.94 625.687 146.01 625.687 147.41V147.71C625.687 149.11 626.067 150.19 626.827 150.95C627.587 151.69 628.547 152.06 629.707 152.06ZM640.276 147.62V147.14C640.276 145.58 640.586 144.25 641.206 143.15C641.826 142.03 642.646 141.18 643.666 140.6C644.706 140 645.836 139.7 647.056 139.7C648.416 139.7 649.446 139.94 650.146 140.42C650.846 140.9 651.356 141.4 651.676 141.92H652.216V140.12H655.936V157.64C655.936 158.66 655.636 159.47 655.036 160.07C654.436 160.69 653.636 161 652.636 161H642.676V157.7H651.316C651.876 157.7 652.156 157.4 652.156 156.8V152.93H651.616C651.416 153.25 651.136 153.58 650.776 153.92C650.416 154.24 649.936 154.51 649.336 154.73C648.736 154.95 647.976 155.06 647.056 155.06C645.836 155.06 644.706 154.77 643.666 154.19C642.646 153.59 641.826 152.74 641.206 151.64C640.586 150.52 640.276 149.18 640.276 147.62ZM648.136 151.76C649.296 151.76 650.266 151.39 651.046 150.65C651.826 149.91 652.216 148.87 652.216 147.53V147.23C652.216 145.87 651.826 144.83 651.046 144.11C650.286 143.37 649.316 143 648.136 143C646.976 143 646.006 143.37 645.226 144.11C644.446 144.83 644.056 145.87 644.056 147.23V147.53C644.056 148.87 644.446 149.91 645.226 150.65C646.006 151.39 646.976 151.76 648.136 151.76ZM661.747 161V157.7H669.847C670.407 157.7 670.687 157.4 670.687 156.8V153.05H670.147C669.987 153.39 669.737 153.73 669.397 154.07C669.057 154.41 668.597 154.69 668.017 154.91C667.437 155.13 666.697 155.24 665.797 155.24C664.637 155.24 663.617 154.98 662.737 154.46C661.877 153.92 661.207 153.18 660.727 152.24C660.247 151.3 660.007 150.22 660.007 149V140.12H663.787V148.7C663.787 149.82 664.057 150.66 664.597 151.22C665.157 151.78 665.947 152.06 666.967 152.06C668.127 152.06 669.027 151.68 669.667 150.92C670.307 150.14 670.627 149.06 670.627 147.68V140.12H674.407V157.64C674.407 158.66 674.107 159.47 673.507 160.07C672.907 160.69 672.107 161 671.107 161H661.747Z" fill="#EFF6FF"/>
<path d="M1205 252C1205 187.935 1257.43 136 1321.5 136V136C1385.57 136 1438 187.935 1438 252V252C1438 316.065 1385.57 368 1321.5 368V368C1257.43 368 1205 316.065 1205 252V252Z" fill="#2563EB"/>
<path d="M1275.71 265V242.834H1267.92V238.248H1288.55V242.834H1280.76V265H1275.71ZM1289.53 265V246.045H1294.27V248.185H1294.96C1295.24 247.42 1295.7 246.86 1296.33 246.503C1296.99 246.146 1297.76 245.968 1298.63 245.968H1300.92V250.248H1298.55C1297.33 250.248 1296.32 250.58 1295.53 251.242C1294.74 251.879 1294.35 252.873 1294.35 254.223V265H1289.53ZM1310.12 265.535C1308.77 265.535 1307.56 265.306 1306.49 264.847C1305.42 264.363 1304.57 263.675 1303.93 262.783C1303.32 261.866 1303.01 260.758 1303.01 259.459C1303.01 258.159 1303.32 257.076 1303.93 256.21C1304.57 255.318 1305.43 254.656 1306.53 254.223C1307.65 253.764 1308.92 253.535 1310.35 253.535H1315.55V252.465C1315.55 251.573 1315.27 250.847 1314.71 250.287C1314.15 249.701 1313.25 249.408 1312.03 249.408C1310.83 249.408 1309.94 249.688 1309.36 250.248C1308.77 250.783 1308.39 251.484 1308.21 252.35L1303.78 250.86C1304.08 249.892 1304.57 249.013 1305.23 248.223C1305.92 247.408 1306.82 246.758 1307.94 246.274C1309.09 245.764 1310.48 245.51 1312.11 245.51C1314.6 245.51 1316.58 246.134 1318.03 247.382C1319.48 248.631 1320.21 250.439 1320.21 252.809V259.879C1320.21 260.643 1320.57 261.025 1321.28 261.025H1322.81V265H1319.6C1318.65 265 1317.88 264.771 1317.27 264.312C1316.65 263.854 1316.35 263.242 1316.35 262.478V262.439H1315.62C1315.52 262.745 1315.29 263.153 1314.93 263.662C1314.58 264.146 1314.02 264.58 1313.25 264.962C1312.49 265.344 1311.44 265.535 1310.12 265.535ZM1310.96 261.637C1312.31 261.637 1313.41 261.268 1314.25 260.529C1315.11 259.764 1315.55 258.758 1315.55 257.51V257.127H1310.69C1309.8 257.127 1309.1 257.318 1308.59 257.701C1308.08 258.083 1307.83 258.618 1307.83 259.306C1307.83 259.994 1308.09 260.554 1308.63 260.987C1309.16 261.42 1309.94 261.637 1310.96 261.637ZM1329.22 265L1323.18 246.045H1328.3L1332.7 261.484H1333.39L1337.78 246.045H1342.9L1336.86 265H1329.22ZM1354.26 265.535C1352.37 265.535 1350.71 265.14 1349.25 264.35C1347.83 263.535 1346.71 262.401 1345.89 260.949C1345.1 259.471 1344.71 257.739 1344.71 255.752V255.293C1344.71 253.306 1345.1 251.586 1345.89 250.134C1346.68 248.656 1347.79 247.522 1349.22 246.732C1350.64 245.917 1352.3 245.51 1354.18 245.51C1356.04 245.51 1357.66 245.93 1359.04 246.771C1360.41 247.586 1361.48 248.732 1362.25 250.21C1363.01 251.662 1363.39 253.357 1363.39 255.293V256.936H1349.6C1349.65 258.236 1350.13 259.293 1351.05 260.108C1351.97 260.924 1353.09 261.331 1354.41 261.331C1355.76 261.331 1356.76 261.038 1357.39 260.452C1358.03 259.866 1358.51 259.217 1358.85 258.503L1362.78 260.567C1362.43 261.229 1361.9 261.955 1361.22 262.745C1360.55 263.51 1359.66 264.172 1358.54 264.732C1357.42 265.268 1355.99 265.535 1354.26 265.535ZM1349.64 253.344H1358.5C1358.4 252.248 1357.95 251.369 1357.16 250.707C1356.4 250.045 1355.39 249.713 1354.15 249.713C1352.85 249.713 1351.81 250.045 1351.05 250.707C1350.29 251.369 1349.81 252.248 1349.64 253.344ZM1367.68 265V238.248H1372.5V265H1367.68Z" fill="#EFF6FF"/>
<path d="M768 126C768 59.7258 821.726 6 888 6V6C954.274 6 1008 59.7258 1008 126V126C1008 192.274 954.274 246 888 246V246C821.726 246 768 192.274 768 126V126Z" fill="#1E40AF"/>
<path d="M830.77 136.92C829.15 136.92 827.72 136.63 826.48 136.05C825.24 135.47 824.27 134.64 823.57 133.56C822.87 132.48 822.52 131.18 822.52 129.66V128.82H826.42V129.66C826.42 130.92 826.81 131.87 827.59 132.51C828.37 133.13 829.43 133.44 830.77 133.44C832.13 133.44 833.14 133.17 833.8 132.63C834.48 132.09 834.82 131.4 834.82 130.56C834.82 129.98 834.65 129.51 834.31 129.15C833.99 128.79 833.51 128.5 832.87 128.28C832.25 128.04 831.49 127.82 830.59 127.62L829.9 127.47C828.46 127.15 827.22 126.75 826.18 126.27C825.16 125.77 824.37 125.12 823.81 124.32C823.27 123.52 823 122.48 823 121.2C823 119.92 823.3 118.83 823.9 117.93C824.52 117.01 825.38 116.31 826.48 115.83C827.6 115.33 828.91 115.08 830.41 115.08C831.91 115.08 833.24 115.34 834.4 115.86C835.58 116.36 836.5 117.12 837.16 118.14C837.84 119.14 838.18 120.4 838.18 121.92V122.82H834.28V121.92C834.28 121.12 834.12 120.48 833.8 120C833.5 119.5 833.06 119.14 832.48 118.92C831.9 118.68 831.21 118.56 830.41 118.56C829.21 118.56 828.32 118.79 827.74 119.25C827.18 119.69 826.9 120.3 826.9 121.08C826.9 121.6 827.03 122.04 827.29 122.4C827.57 122.76 827.98 123.06 828.52 123.3C829.06 123.54 829.75 123.75 830.59 123.93L831.28 124.08C832.78 124.4 834.08 124.81 835.18 125.31C836.3 125.81 837.17 126.47 837.79 127.29C838.41 128.11 838.72 129.16 838.72 130.44C838.72 131.72 838.39 132.85 837.73 133.83C837.09 134.79 836.17 135.55 834.97 136.11C833.79 136.65 832.39 136.92 830.77 136.92ZM848.573 136.92C847.093 136.92 845.783 136.61 844.643 135.99C843.523 135.35 842.643 134.46 842.003 133.32C841.383 132.16 841.073 130.8 841.073 129.24V128.88C841.073 127.32 841.383 125.97 842.003 124.83C842.623 123.67 843.493 122.78 844.613 122.16C845.733 121.52 847.033 121.2 848.513 121.2C849.973 121.2 851.243 121.53 852.323 122.19C853.403 122.83 854.243 123.73 854.843 124.89C855.443 126.03 855.743 127.36 855.743 128.88V130.17H844.913C844.953 131.19 845.333 132.02 846.053 132.66C846.773 133.3 847.653 133.62 848.693 133.62C849.753 133.62 850.533 133.39 851.033 132.93C851.533 132.47 851.913 131.96 852.173 131.4L855.263 133.02C854.983 133.54 854.573 134.11 854.033 134.73C853.513 135.33 852.813 135.85 851.933 136.29C851.053 136.71 849.933 136.92 848.573 136.92ZM844.943 127.35H851.903C851.823 126.49 851.473 125.8 850.853 125.28C850.253 124.76 849.463 124.5 848.483 124.5C847.463 124.5 846.653 124.76 846.053 125.28C845.453 125.8 845.083 126.49 844.943 127.35ZM859.108 136.5V115.5H862.888V136.5H859.108ZM873.857 136.92C872.377 136.92 871.067 136.61 869.927 135.99C868.807 135.35 867.927 134.46 867.287 133.32C866.667 132.16 866.357 130.8 866.357 129.24V128.88C866.357 127.32 866.667 125.97 867.287 124.83C867.907 123.67 868.777 122.78 869.897 122.16C871.017 121.52 872.317 121.2 873.797 121.2C875.257 121.2 876.527 121.53 877.607 122.19C878.687 122.83 879.527 123.73 880.127 124.89C880.727 126.03 881.027 127.36 881.027 128.88V130.17H870.197C870.237 131.19 870.617 132.02 871.337 132.66C872.057 133.3 872.937 133.62 873.977 133.62C875.037 133.62 875.817 133.39 876.317 132.93C876.817 132.47 877.197 131.96 877.457 131.4L880.547 133.02C880.267 133.54 879.857 134.11 879.317 134.73C878.797 135.33 878.097 135.85 877.217 136.29C876.337 136.71 875.217 136.92 873.857 136.92ZM870.227 127.35H877.187C877.107 126.49 876.757 125.8 876.137 125.28C875.537 124.76 874.747 124.5 873.767 124.5C872.747 124.5 871.937 124.76 871.337 125.28C870.737 125.8 870.367 126.49 870.227 127.35ZM891.381 136.92C889.941 136.92 888.631 136.62 887.451 136.02C886.291 135.42 885.371 134.55 884.691 133.41C884.011 132.27 883.671 130.89 883.671 129.27V128.85C883.671 127.23 884.011 125.85 884.691 124.71C885.371 123.57 886.291 122.7 887.451 122.1C888.631 121.5 889.941 121.2 891.381 121.2C892.801 121.2 894.021 121.45 895.041 121.95C896.061 122.45 896.881 123.14 897.501 124.02C898.141 124.88 898.561 125.86 898.761 126.96L895.101 127.74C895.021 127.14 894.841 126.6 894.561 126.12C894.281 125.64 893.881 125.26 893.361 124.98C892.861 124.7 892.231 124.56 891.471 124.56C890.711 124.56 890.021 124.73 889.401 125.07C888.801 125.39 888.321 125.88 887.961 126.54C887.621 127.18 887.451 127.97 887.451 128.91V129.21C887.451 130.15 887.621 130.95 887.961 131.61C888.321 132.25 888.801 132.74 889.401 133.08C890.021 133.4 890.711 133.56 891.471 133.56C892.611 133.56 893.471 133.27 894.051 132.69C894.651 132.09 895.031 131.31 895.191 130.35L898.851 131.22C898.591 132.28 898.141 133.25 897.501 134.13C896.881 134.99 896.061 135.67 895.041 136.17C894.021 136.67 892.801 136.92 891.381 136.92ZM907.171 136.5C906.191 136.5 905.391 136.2 904.771 135.6C904.171 134.98 903.871 134.16 903.871 133.14V124.74H900.151V121.62H903.871V117H907.651V121.62H911.731V124.74H907.651V132.48C907.651 133.08 907.931 133.38 908.491 133.38H911.371V136.5H907.171ZM915.153 136.5V121.62H918.933V136.5H915.153ZM917.043 119.88C916.363 119.88 915.783 119.66 915.303 119.22C914.843 118.78 914.613 118.2 914.613 117.48C914.613 116.76 914.843 116.18 915.303 115.74C915.783 115.3 916.363 115.08 917.043 115.08C917.743 115.08 918.323 115.3 918.783 115.74C919.243 116.18 919.473 116.76 919.473 117.48C919.473 118.2 919.243 118.78 918.783 119.22C918.323 119.66 917.743 119.88 917.043 119.88ZM926.241 136.5L921.501 121.62H925.521L928.971 133.74H929.511L932.961 121.62H936.981L932.241 136.5H926.241ZM945.898 136.92C944.418 136.92 943.108 136.61 941.968 135.99C940.848 135.35 939.968 134.46 939.328 133.32C938.708 132.16 938.398 130.8 938.398 129.24V128.88C938.398 127.32 938.708 125.97 939.328 124.83C939.948 123.67 940.818 122.78 941.938 122.16C943.058 121.52 944.358 121.2 945.838 121.2C947.298 121.2 948.568 121.53 949.648 122.19C950.728 122.83 951.568 123.73 952.168 124.89C952.768 126.03 953.068 127.36 953.068 128.88V130.17H942.238C942.278 131.19 942.658 132.02 943.378 132.66C944.098 133.3 944.978 133.62 946.018 133.62C947.078 133.62 947.858 133.39 948.358 132.93C948.858 132.47 949.238 131.96 949.498 131.4L952.588 133.02C952.308 133.54 951.898 134.11 951.358 134.73C950.838 135.33 950.138 135.85 949.258 136.29C948.378 136.71 947.258 136.92 945.898 136.92ZM942.268 127.35H949.228C949.148 126.49 948.798 125.8 948.178 125.28C947.578 124.76 946.788 124.5 945.808 124.5C944.788 124.5 943.978 124.76 943.378 125.28C942.778 125.8 942.408 126.49 942.268 127.35Z" fill="#EFF6FF"/>
<path d="M24 394C24 327.726 77.7258 274 144 274V274C210.274 274 264 327.726 264 394V394C264 460.274 210.274 514 144 514V514C77.7258 514 24 460.274 24 394V394Z" fill="#1E40AF"/>
<path d="M86.77 404.92C85.15 404.92 83.72 404.63 82.48 404.05C81.24 403.47 80.27 402.64 79.57 401.56C78.87 400.48 78.52 399.18 78.52 397.66V396.82H82.42V397.66C82.42 398.92 82.81 399.87 83.59 400.51C84.37 401.13 85.43 401.44 86.77 401.44C88.13 401.44 89.14 401.17 89.8 400.63C90.48 400.09 90.82 399.4 90.82 398.56C90.82 397.98 90.65 397.51 90.31 397.15C89.99 396.79 89.51 396.5 88.87 396.28C88.25 396.04 87.49 395.82 86.59 395.62L85.9 395.47C84.46 395.15 83.22 394.75 82.18 394.27C81.16 393.77 80.37 393.12 79.81 392.32C79.27 391.52 79 390.48 79 389.2C79 387.92 79.3 386.83 79.9 385.93C80.52 385.01 81.38 384.31 82.48 383.83C83.6 383.33 84.91 383.08 86.41 383.08C87.91 383.08 89.24 383.34 90.4 383.86C91.58 384.36 92.5 385.12 93.16 386.14C93.84 387.14 94.18 388.4 94.18 389.92V390.82H90.28V389.92C90.28 389.12 90.12 388.48 89.8 388C89.5 387.5 89.06 387.14 88.48 386.92C87.9 386.68 87.21 386.56 86.41 386.56C85.21 386.56 84.32 386.79 83.74 387.25C83.18 387.69 82.9 388.3 82.9 389.08C82.9 389.6 83.03 390.04 83.29 390.4C83.57 390.76 83.98 391.06 84.52 391.3C85.06 391.54 85.75 391.75 86.59 391.93L87.28 392.08C88.78 392.4 90.08 392.81 91.18 393.31C92.3 393.81 93.17 394.47 93.79 395.29C94.41 396.11 94.72 397.16 94.72 398.44C94.72 399.72 94.39 400.85 93.73 401.83C93.09 402.79 92.17 403.55 90.97 404.11C89.79 404.65 88.39 404.92 86.77 404.92ZM104.573 404.92C103.093 404.92 101.783 404.61 100.643 403.99C99.5234 403.35 98.6434 402.46 98.0034 401.32C97.3834 400.16 97.0734 398.8 97.0734 397.24V396.88C97.0734 395.32 97.3834 393.97 98.0034 392.83C98.6234 391.67 99.4934 390.78 100.613 390.16C101.733 389.52 103.033 389.2 104.513 389.2C105.973 389.2 107.243 389.53 108.323 390.19C109.403 390.83 110.243 391.73 110.843 392.89C111.443 394.03 111.743 395.36 111.743 396.88V398.17H100.913C100.953 399.19 101.333 400.02 102.053 400.66C102.773 401.3 103.653 401.62 104.693 401.62C105.753 401.62 106.533 401.39 107.033 400.93C107.533 400.47 107.913 399.96 108.173 399.4L111.263 401.02C110.983 401.54 110.573 402.11 110.033 402.73C109.513 403.33 108.813 403.85 107.933 404.29C107.053 404.71 105.933 404.92 104.573 404.92ZM100.943 395.35H107.903C107.823 394.49 107.473 393.8 106.853 393.28C106.253 392.76 105.463 392.5 104.483 392.5C103.463 392.5 102.653 392.76 102.053 393.28C101.453 393.8 101.083 394.49 100.943 395.35ZM115.108 404.5V383.5H118.888V404.5H115.108ZM129.857 404.92C128.377 404.92 127.067 404.61 125.927 403.99C124.807 403.35 123.927 402.46 123.287 401.32C122.667 400.16 122.357 398.8 122.357 397.24V396.88C122.357 395.32 122.667 393.97 123.287 392.83C123.907 391.67 124.777 390.78 125.897 390.16C127.017 389.52 128.317 389.2 129.797 389.2C131.257 389.2 132.527 389.53 133.607 390.19C134.687 390.83 135.527 391.73 136.127 392.89C136.727 394.03 137.027 395.36 137.027 396.88V398.17H126.197C126.237 399.19 126.617 400.02 127.337 400.66C128.057 401.3 128.937 401.62 129.977 401.62C131.037 401.62 131.817 401.39 132.317 400.93C132.817 400.47 133.197 399.96 133.457 399.4L136.547 401.02C136.267 401.54 135.857 402.11 135.317 402.73C134.797 403.33 134.097 403.85 133.217 404.29C132.337 404.71 131.217 404.92 129.857 404.92ZM126.227 395.35H133.187C133.107 394.49 132.757 393.8 132.137 393.28C131.537 392.76 130.747 392.5 129.767 392.5C128.747 392.5 127.937 392.76 127.337 393.28C126.737 393.8 126.367 394.49 126.227 395.35ZM147.381 404.92C145.941 404.92 144.631 404.62 143.451 404.02C142.291 403.42 141.371 402.55 140.691 401.41C140.011 400.27 139.671 398.89 139.671 397.27V396.85C139.671 395.23 140.011 393.85 140.691 392.71C141.371 391.57 142.291 390.7 143.451 390.1C144.631 389.5 145.941 389.2 147.381 389.2C148.801 389.2 150.021 389.45 151.041 389.95C152.061 390.45 152.881 391.14 153.501 392.02C154.141 392.88 154.561 393.86 154.761 394.96L151.101 395.74C151.021 395.14 150.841 394.6 150.561 394.12C150.281 393.64 149.881 393.26 149.361 392.98C148.861 392.7 148.231 392.56 147.471 392.56C146.711 392.56 146.021 392.73 145.401 393.07C144.801 393.39 144.321 393.88 143.961 394.54C143.621 395.18 143.451 395.97 143.451 396.91V397.21C143.451 398.15 143.621 398.95 143.961 399.61C144.321 400.25 144.801 400.74 145.401 401.08C146.021 401.4 146.711 401.56 147.471 401.56C148.611 401.56 149.471 401.27 150.051 400.69C150.651 400.09 151.031 399.31 151.191 398.35L154.851 399.22C154.591 400.28 154.141 401.25 153.501 402.13C152.881 402.99 152.061 403.67 151.041 404.17C150.021 404.67 148.801 404.92 147.381 404.92ZM163.171 404.5C162.191 404.5 161.391 404.2 160.771 403.6C160.171 402.98 159.871 402.16 159.871 401.14V392.74H156.151V389.62H159.871V385H163.651V389.62H167.731V392.74H163.651V400.48C163.651 401.08 163.931 401.38 164.491 401.38H167.371V404.5H163.171ZM171.153 404.5V389.62H174.933V404.5H171.153ZM173.043 387.88C172.363 387.88 171.783 387.66 171.303 387.22C170.843 386.78 170.613 386.2 170.613 385.48C170.613 384.76 170.843 384.18 171.303 383.74C171.783 383.3 172.363 383.08 173.043 383.08C173.743 383.08 174.323 383.3 174.783 383.74C175.243 384.18 175.473 384.76 175.473 385.48C175.473 386.2 175.243 386.78 174.783 387.22C174.323 387.66 173.743 387.88 173.043 387.88ZM182.241 404.5L177.501 389.62H181.521L184.971 401.74H185.511L188.961 389.62H192.981L188.241 404.5H182.241ZM201.898 404.92C200.418 404.92 199.108 404.61 197.968 403.99C196.848 403.35 195.968 402.46 195.328 401.32C194.708 400.16 194.398 398.8 194.398 397.24V396.88C194.398 395.32 194.708 393.97 195.328 392.83C195.948 391.67 196.818 390.78 197.938 390.16C199.058 389.52 200.358 389.2 201.838 389.2C203.298 389.2 204.568 389.53 205.648 390.19C206.728 390.83 207.568 391.73 208.168 392.89C208.768 394.03 209.068 395.36 209.068 396.88V398.17H198.238C198.278 399.19 198.658 400.02 199.378 400.66C200.098 401.3 200.978 401.62 202.018 401.62C203.078 401.62 203.858 401.39 204.358 400.93C204.858 400.47 205.238 399.96 205.498 399.4L208.588 401.02C208.308 401.54 207.898 402.11 207.358 402.73C206.838 403.33 206.138 403.85 205.258 404.29C204.378 404.71 203.258 404.92 201.898 404.92ZM198.268 395.35H205.228C205.148 394.49 204.798 393.8 204.178 393.28C203.578 392.76 202.788 392.5 201.808 392.5C200.788 392.5 199.978 392.76 199.378 393.28C198.778 393.8 198.408 394.49 198.268 395.35Z" fill="#EFF6FF"/>
<path d="M268 374.643C268 296.77 331.128 233.643 409 233.643V233.643C486.872 233.643 550 296.77 550 374.643V374.643C550 452.515 486.872 515.643 409 515.643V515.643C331.128 515.643 268 452.515 268 374.643V374.643Z" fill="#3B82F6"/>
<path d="M305.98 385.143V364.143H319.48V367.743H309.94V372.753H318.64V376.353H309.94V381.543H319.66V385.143H305.98ZM322.711 385.143V370.263H326.431V372.213H326.971C327.211 371.693 327.661 371.203 328.321 370.743C328.981 370.263 329.981 370.023 331.321 370.023C332.481 370.023 333.491 370.293 334.351 370.833C335.231 371.353 335.911 372.083 336.391 373.023C336.871 373.943 337.111 375.023 337.111 376.263V385.143H333.331V376.563C333.331 375.443 333.051 374.603 332.491 374.043C331.951 373.483 331.171 373.203 330.151 373.203C328.991 373.203 328.091 373.593 327.451 374.373C326.811 375.133 326.491 376.203 326.491 377.583V385.143H322.711ZM346.488 385.143C345.508 385.143 344.708 384.843 344.088 384.243C343.488 383.623 343.188 382.803 343.188 381.783V373.383H339.468V370.263H343.188V365.643H346.968V370.263H351.048V373.383H346.968V381.123C346.968 381.723 347.248 382.023 347.808 382.023H350.688V385.143H346.488ZM360.722 385.563C359.242 385.563 357.932 385.253 356.792 384.633C355.672 383.993 354.792 383.103 354.152 381.963C353.532 380.803 353.222 379.443 353.222 377.883V377.523C353.222 375.963 353.532 374.613 354.152 373.473C354.772 372.313 355.642 371.423 356.762 370.803C357.882 370.163 359.182 369.843 360.662 369.843C362.122 369.843 363.392 370.173 364.472 370.833C365.552 371.473 366.392 372.373 366.992 373.533C367.592 374.673 367.892 376.003 367.892 377.523V378.813H357.062C357.102 379.833 357.482 380.663 358.202 381.303C358.922 381.943 359.802 382.263 360.842 382.263C361.902 382.263 362.682 382.033 363.182 381.573C363.682 381.113 364.062 380.603 364.322 380.043L367.412 381.663C367.132 382.183 366.722 382.753 366.182 383.373C365.662 383.973 364.962 384.493 364.082 384.933C363.202 385.353 362.082 385.563 360.722 385.563ZM357.092 375.993H364.052C363.972 375.133 363.622 374.443 363.002 373.923C362.402 373.403 361.612 373.143 360.632 373.143C359.612 373.143 358.802 373.403 358.202 373.923C357.602 374.443 357.232 375.133 357.092 375.993ZM371.256 385.143V370.263H374.976V371.943H375.516C375.736 371.343 376.096 370.903 376.596 370.623C377.116 370.343 377.716 370.203 378.396 370.203H380.196V373.563H378.336C377.376 373.563 376.586 373.823 375.966 374.343C375.346 374.843 375.036 375.623 375.036 376.683V385.143H371.256ZM388.851 385.143C387.871 385.143 387.071 384.843 386.451 384.243C385.851 383.623 385.551 382.803 385.551 381.783V373.383H381.831V370.263H385.551V365.643H389.331V370.263H393.411V373.383H389.331V381.123C389.331 381.723 389.611 382.023 390.171 382.023H393.051V385.143H388.851ZM401.452 385.563C400.392 385.563 399.442 385.383 398.602 385.023C397.762 384.643 397.092 384.103 396.592 383.403C396.112 382.683 395.872 381.813 395.872 380.793C395.872 379.773 396.112 378.923 396.592 378.243C397.092 377.543 397.772 377.023 398.632 376.683C399.512 376.323 400.512 376.143 401.632 376.143H405.712V375.303C405.712 374.603 405.492 374.033 405.052 373.593C404.612 373.133 403.912 372.903 402.952 372.903C402.012 372.903 401.312 373.123 400.852 373.563C400.392 373.983 400.092 374.533 399.952 375.213L396.472 374.043C396.712 373.283 397.092 372.593 397.612 371.973C398.152 371.333 398.862 370.823 399.742 370.443C400.642 370.043 401.732 369.843 403.012 369.843C404.972 369.843 406.522 370.333 407.662 371.313C408.802 372.293 409.372 373.713 409.372 375.573V381.123C409.372 381.723 409.652 382.023 410.212 382.023H411.412V385.143H408.892C408.152 385.143 407.542 384.963 407.062 384.603C406.582 384.243 406.342 383.763 406.342 383.163V383.133H405.772C405.692 383.373 405.512 383.693 405.232 384.093C404.952 384.473 404.512 384.813 403.912 385.113C403.312 385.413 402.492 385.563 401.452 385.563ZM402.112 382.503C403.172 382.503 404.032 382.213 404.692 381.633C405.372 381.033 405.712 380.243 405.712 379.263V378.963H401.902C401.202 378.963 400.652 379.113 400.252 379.413C399.852 379.713 399.652 380.133 399.652 380.673C399.652 381.213 399.862 381.653 400.282 381.993C400.702 382.333 401.312 382.503 402.112 382.503ZM414.176 385.143V370.263H417.956V385.143H414.176ZM416.066 368.523C415.386 368.523 414.806 368.303 414.326 367.863C413.866 367.423 413.636 366.843 413.636 366.123C413.636 365.403 413.866 364.823 414.326 364.383C414.806 363.943 415.386 363.723 416.066 363.723C416.766 363.723 417.346 363.943 417.806 364.383C418.266 364.823 418.496 365.403 418.496 366.123C418.496 366.843 418.266 367.423 417.806 367.863C417.346 368.303 416.766 368.523 416.066 368.523ZM422.145 385.143V370.263H425.865V372.213H426.405C426.645 371.693 427.095 371.203 427.755 370.743C428.415 370.263 429.415 370.023 430.755 370.023C431.915 370.023 432.925 370.293 433.785 370.833C434.665 371.353 435.345 372.083 435.825 373.023C436.305 373.943 436.545 375.023 436.545 376.263V385.143H432.765V376.563C432.765 375.443 432.485 374.603 431.925 374.043C431.385 373.483 430.605 373.203 429.585 373.203C428.425 373.203 427.525 373.593 426.885 374.373C426.245 375.133 425.925 376.203 425.925 377.583V385.143H422.145ZM440.631 385.143V370.263H444.351V371.883H444.891C445.151 371.383 445.581 370.953 446.181 370.593C446.781 370.213 447.571 370.023 448.551 370.023C449.611 370.023 450.461 370.233 451.101 370.653C451.741 371.053 452.231 371.583 452.571 372.243H453.111C453.451 371.603 453.931 371.073 454.551 370.653C455.171 370.233 456.051 370.023 457.191 370.023C458.111 370.023 458.941 370.223 459.681 370.623C460.441 371.003 461.041 371.593 461.481 372.393C461.941 373.173 462.171 374.163 462.171 375.363V385.143H458.391V375.633C458.391 374.813 458.181 374.203 457.761 373.803C457.341 373.383 456.751 373.173 455.991 373.173C455.131 373.173 454.461 373.453 453.981 374.013C453.521 374.553 453.291 375.333 453.291 376.353V385.143H449.511V375.633C449.511 374.813 449.301 374.203 448.881 373.803C448.461 373.383 447.871 373.173 447.111 373.173C446.251 373.173 445.581 373.453 445.101 374.013C444.641 374.553 444.411 375.333 444.411 376.353V385.143H440.631ZM473.017 385.563C471.537 385.563 470.227 385.253 469.087 384.633C467.967 383.993 467.087 383.103 466.447 381.963C465.827 380.803 465.517 379.443 465.517 377.883V377.523C465.517 375.963 465.827 374.613 466.447 373.473C467.067 372.313 467.937 371.423 469.057 370.803C470.177 370.163 471.477 369.843 472.957 369.843C474.417 369.843 475.687 370.173 476.767 370.833C477.847 371.473 478.687 372.373 479.287 373.533C479.887 374.673 480.187 376.003 480.187 377.523V378.813H469.357C469.397 379.833 469.777 380.663 470.497 381.303C471.217 381.943 472.097 382.263 473.137 382.263C474.197 382.263 474.977 382.033 475.477 381.573C475.977 381.113 476.357 380.603 476.617 380.043L479.707 381.663C479.427 382.183 479.017 382.753 478.477 383.373C477.957 383.973 477.257 384.493 476.377 384.933C475.497 385.353 474.377 385.563 473.017 385.563ZM469.387 375.993H476.347C476.267 375.133 475.917 374.443 475.297 373.923C474.697 373.403 473.907 373.143 472.927 373.143C471.907 373.143 471.097 373.403 470.497 373.923C469.897 374.443 469.527 375.133 469.387 375.993ZM483.551 385.143V370.263H487.271V372.213H487.811C488.051 371.693 488.501 371.203 489.161 370.743C489.821 370.263 490.821 370.023 492.161 370.023C493.321 370.023 494.331 370.293 495.191 370.833C496.071 371.353 496.751 372.083 497.231 373.023C497.711 373.943 497.951 375.023 497.951 376.263V385.143H494.171V376.563C494.171 375.443 493.891 374.603 493.331 374.043C492.791 373.483 492.011 373.203 490.991 373.203C489.831 373.203 488.931 373.593 488.291 374.373C487.651 375.133 487.331 376.203 487.331 377.583V385.143H483.551ZM507.327 385.143C506.347 385.143 505.547 384.843 504.927 384.243C504.327 383.623 504.027 382.803 504.027 381.783V373.383H500.307V370.263H504.027V365.643H507.807V370.263H511.887V373.383H507.807V381.123C507.807 381.723 508.087 382.023 508.647 382.023H511.527V385.143H507.327Z" fill="#EFF6FF"/>
<path d="M1022 124.5C1022 64.0248 1071.02 15 1131.5 15V15C1191.98 15 1241 64.0248 1241 124.5V124.5C1241 184.975 1191.98 234 1131.5 234V234C1071.02 234 1022 184.975 1022 124.5V124.5Z" fill="#3B82F6"/>
<path d="M1059.98 135V114H1073.48V117.6H1063.94V122.61H1072.64V126.21H1063.94V131.4H1073.66V135H1059.98ZM1082.71 135.42C1081.53 135.42 1080.42 135.13 1079.38 134.55C1078.36 133.95 1077.54 133.08 1076.92 131.94C1076.3 130.8 1075.99 129.42 1075.99 127.8V127.32C1075.99 125.7 1076.3 124.32 1076.92 123.18C1077.54 122.04 1078.36 121.18 1079.38 120.6C1080.4 120 1081.51 119.7 1082.71 119.7C1083.61 119.7 1084.36 119.81 1084.96 120.03C1085.58 120.23 1086.08 120.49 1086.46 120.81C1086.84 121.13 1087.13 121.47 1087.33 121.83H1087.87V114H1091.65V135H1087.93V133.2H1087.39C1087.05 133.76 1086.52 134.27 1085.8 134.73C1085.1 135.19 1084.07 135.42 1082.71 135.42ZM1083.85 132.12C1085.01 132.12 1085.98 131.75 1086.76 131.01C1087.54 130.25 1087.93 129.15 1087.93 127.71V127.41C1087.93 125.97 1087.54 124.88 1086.76 124.14C1086 123.38 1085.03 123 1083.85 123C1082.69 123 1081.72 123.38 1080.94 124.14C1080.16 124.88 1079.77 125.97 1079.77 127.41V127.71C1079.77 129.15 1080.16 130.25 1080.94 131.01C1081.72 131.75 1082.69 132.12 1083.85 132.12ZM1101.51 135.24C1100.35 135.24 1099.33 134.98 1098.45 134.46C1097.59 133.92 1096.92 133.18 1096.44 132.24C1095.96 131.3 1095.72 130.22 1095.72 129V120.12H1099.5V128.7C1099.5 129.82 1099.77 130.66 1100.31 131.22C1100.87 131.78 1101.66 132.06 1102.68 132.06C1103.84 132.06 1104.74 131.68 1105.38 130.92C1106.02 130.14 1106.34 129.06 1106.34 127.68V120.12H1110.12V135H1106.4V133.05H1105.86C1105.62 133.55 1105.17 134.04 1104.51 134.52C1103.85 135 1102.85 135.24 1101.51 135.24ZM1121.32 135.42C1119.88 135.42 1118.57 135.12 1117.39 134.52C1116.23 133.92 1115.31 133.05 1114.63 131.91C1113.95 130.77 1113.61 129.39 1113.61 127.77V127.35C1113.61 125.73 1113.95 124.35 1114.63 123.21C1115.31 122.07 1116.23 121.2 1117.39 120.6C1118.57 120 1119.88 119.7 1121.32 119.7C1122.74 119.7 1123.96 119.95 1124.98 120.45C1126 120.95 1126.82 121.64 1127.44 122.52C1128.08 123.38 1128.5 124.36 1128.7 125.46L1125.04 126.24C1124.96 125.64 1124.78 125.1 1124.5 124.62C1124.22 124.14 1123.82 123.76 1123.3 123.48C1122.8 123.2 1122.17 123.06 1121.41 123.06C1120.65 123.06 1119.96 123.23 1119.34 123.57C1118.74 123.89 1118.26 124.38 1117.9 125.04C1117.56 125.68 1117.39 126.47 1117.39 127.41V127.71C1117.39 128.65 1117.56 129.45 1117.9 130.11C1118.26 130.75 1118.74 131.24 1119.34 131.58C1119.96 131.9 1120.65 132.06 1121.41 132.06C1122.55 132.06 1123.41 131.77 1123.99 131.19C1124.59 130.59 1124.97 129.81 1125.13 128.85L1128.79 129.72C1128.53 130.78 1128.08 131.75 1127.44 132.63C1126.82 133.49 1126 134.17 1124.98 134.67C1123.96 135.17 1122.74 135.42 1121.32 135.42ZM1136.53 135.42C1135.47 135.42 1134.52 135.24 1133.68 134.88C1132.84 134.5 1132.17 133.96 1131.67 133.26C1131.19 132.54 1130.95 131.67 1130.95 130.65C1130.95 129.63 1131.19 128.78 1131.67 128.1C1132.17 127.4 1132.85 126.88 1133.71 126.54C1134.59 126.18 1135.59 126 1136.71 126H1140.79V125.16C1140.79 124.46 1140.57 123.89 1140.13 123.45C1139.69 122.99 1138.99 122.76 1138.03 122.76C1137.09 122.76 1136.39 122.98 1135.93 123.42C1135.47 123.84 1135.17 124.39 1135.03 125.07L1131.55 123.9C1131.79 123.14 1132.17 122.45 1132.69 121.83C1133.23 121.19 1133.94 120.68 1134.82 120.3C1135.72 119.9 1136.81 119.7 1138.09 119.7C1140.05 119.7 1141.6 120.19 1142.74 121.17C1143.88 122.15 1144.45 123.57 1144.45 125.43V130.98C1144.45 131.58 1144.73 131.88 1145.29 131.88H1146.49V135H1143.97C1143.23 135 1142.62 134.82 1142.14 134.46C1141.66 134.1 1141.42 133.62 1141.42 133.02V132.99H1140.85C1140.77 133.23 1140.59 133.55 1140.31 133.95C1140.03 134.33 1139.59 134.67 1138.99 134.97C1138.39 135.27 1137.57 135.42 1136.53 135.42ZM1137.19 132.36C1138.25 132.36 1139.11 132.07 1139.77 131.49C1140.45 130.89 1140.79 130.1 1140.79 129.12V128.82H1136.98C1136.28 128.82 1135.73 128.97 1135.33 129.27C1134.93 129.57 1134.73 129.99 1134.73 130.53C1134.73 131.07 1134.94 131.51 1135.36 131.85C1135.78 132.19 1136.39 132.36 1137.19 132.36ZM1153.87 135C1152.89 135 1152.09 134.7 1151.47 134.1C1150.87 133.48 1150.57 132.66 1150.57 131.64V123.24H1146.85V120.12H1150.57V115.5H1154.35V120.12H1158.43V123.24H1154.35V130.98C1154.35 131.58 1154.63 131.88 1155.19 131.88H1158.07V135H1153.87ZM1161.85 135V120.12H1165.63V135H1161.85ZM1163.74 118.38C1163.06 118.38 1162.48 118.16 1162 117.72C1161.54 117.28 1161.31 116.7 1161.31 115.98C1161.31 115.26 1161.54 114.68 1162 114.24C1162.48 113.8 1163.06 113.58 1163.74 113.58C1164.44 113.58 1165.02 113.8 1165.48 114.24C1165.94 114.68 1166.17 115.26 1166.17 115.98C1166.17 116.7 1165.94 117.28 1165.48 117.72C1165.02 118.16 1164.44 118.38 1163.74 118.38ZM1176.9 135.42C1175.42 135.42 1174.09 135.12 1172.91 134.52C1171.73 133.92 1170.8 133.05 1170.12 131.91C1169.44 130.77 1169.1 129.4 1169.1 127.8V127.32C1169.1 125.72 1169.44 124.35 1170.12 123.21C1170.8 122.07 1171.73 121.2 1172.91 120.6C1174.09 120 1175.42 119.7 1176.9 119.7C1178.38 119.7 1179.71 120 1180.89 120.6C1182.07 121.2 1183 122.07 1183.68 123.21C1184.36 124.35 1184.7 125.72 1184.7 127.32V127.8C1184.7 129.4 1184.36 130.77 1183.68 131.91C1183 133.05 1182.07 133.92 1180.89 134.52C1179.71 135.12 1178.38 135.42 1176.9 135.42ZM1176.9 132.06C1178.06 132.06 1179.02 131.69 1179.78 130.95C1180.54 130.19 1180.92 129.11 1180.92 127.71V127.41C1180.92 126.01 1180.54 124.94 1179.78 124.2C1179.04 123.44 1178.08 123.06 1176.9 123.06C1175.74 123.06 1174.78 123.44 1174.02 124.2C1173.26 124.94 1172.88 126.01 1172.88 127.41V127.71C1172.88 129.11 1173.26 130.19 1174.02 130.95C1174.78 131.69 1175.74 132.06 1176.9 132.06ZM1188.19 135V120.12H1191.91V122.07H1192.45C1192.69 121.55 1193.14 121.06 1193.8 120.6C1194.46 120.12 1195.46 119.88 1196.8 119.88C1197.96 119.88 1198.97 120.15 1199.83 120.69C1200.71 121.21 1201.39 121.94 1201.87 122.88C1202.35 123.8 1202.59 124.88 1202.59 126.12V135H1198.81V126.42C1198.81 125.3 1198.53 124.46 1197.97 123.9C1197.43 123.34 1196.65 123.06 1195.63 123.06C1194.47 123.06 1193.57 123.45 1192.93 124.23C1192.29 124.99 1191.97 126.06 1191.97 127.44V135H1188.19Z" fill="#EFF6FF"/>
<path d="M636 366.143C636 293.172 695.155 233.643 768.126 233.643V233.643C841.097 233.643 900.251 293.172 900.251 366.143V366.143C900.251 439.114 841.097 498.643 768.126 498.643V498.643C695.155 498.643 636 439.114 636 366.143V366.143Z" fill="#3B82F6"/>
<path d="M696.268 382.143V348.819H702.551V362.577H714.929V348.819H721.213V382.143H714.929V368.29H702.551V382.143H696.268ZM738.457 382.809C736.109 382.809 734.03 382.317 732.221 381.333C730.444 380.318 729.048 378.905 728.032 377.096C727.048 375.256 726.556 373.098 726.556 370.622V370.051C726.556 367.576 727.048 365.433 728.032 363.624C729.016 361.784 730.396 360.371 732.174 359.387C733.951 358.372 736.014 357.864 738.362 357.864C740.679 357.864 742.694 358.388 744.408 359.435C746.122 360.451 747.455 361.879 748.407 363.72C749.359 365.529 749.835 367.639 749.835 370.051V372.098H732.65C732.713 373.717 733.316 375.034 734.459 376.049C735.601 377.065 736.998 377.573 738.648 377.573C740.33 377.573 741.568 377.208 742.361 376.478C743.154 375.748 743.757 374.938 744.17 374.05L749.073 376.62C748.629 377.446 747.978 378.35 747.121 379.334C746.296 380.286 745.186 381.111 743.789 381.809C742.393 382.476 740.615 382.809 738.457 382.809ZM732.697 367.623H743.742C743.615 366.258 743.059 365.164 742.075 364.338C741.123 363.513 739.87 363.101 738.315 363.101C736.696 363.101 735.411 363.513 734.459 364.338C733.506 365.164 732.919 366.258 732.697 367.623ZM762.505 382.809C760.823 382.809 759.315 382.523 757.982 381.952C756.649 381.349 755.586 380.492 754.793 379.382C754.031 378.239 753.65 376.858 753.65 375.24C753.65 373.621 754.031 372.273 754.793 371.193C755.586 370.083 756.665 369.258 758.03 368.718C759.426 368.147 761.013 367.861 762.791 367.861H769.265V366.528C769.265 365.417 768.916 364.513 768.217 363.815C767.519 363.085 766.408 362.72 764.885 362.72C763.394 362.72 762.283 363.069 761.553 363.767C760.823 364.434 760.347 365.306 760.125 366.385L754.602 364.529C754.983 363.323 755.586 362.228 756.411 361.244C757.268 360.229 758.395 359.419 759.791 358.816C761.22 358.181 762.949 357.864 764.98 357.864C768.091 357.864 770.55 358.642 772.359 360.197C774.168 361.752 775.073 364.005 775.073 366.957V375.764C775.073 376.716 775.517 377.192 776.405 377.192H778.31V382.143H774.311C773.137 382.143 772.169 381.857 771.407 381.286C770.645 380.714 770.264 379.953 770.264 379.001V378.953H769.36C769.233 379.334 768.947 379.842 768.503 380.476C768.059 381.079 767.361 381.619 766.408 382.095C765.456 382.571 764.155 382.809 762.505 382.809ZM763.552 377.953C765.234 377.953 766.599 377.493 767.646 376.573C768.725 375.621 769.265 374.367 769.265 372.812V372.336H763.219C762.108 372.336 761.235 372.574 760.601 373.05C759.966 373.526 759.649 374.193 759.649 375.049C759.649 375.906 759.982 376.605 760.648 377.144C761.315 377.684 762.283 377.953 763.552 377.953ZM782.695 382.143V348.819H788.693V382.143H782.695ZM804.385 382.143C802.83 382.143 801.561 381.667 800.577 380.714C799.625 379.731 799.149 378.429 799.149 376.811V363.481H793.246V358.531H799.149V351.199H805.147V358.531H811.621V363.481H805.147V375.764C805.147 376.716 805.591 377.192 806.48 377.192H811.05V382.143H804.385ZM817.051 382.143V348.819H823.049V361.434H823.906C824.16 360.927 824.556 360.419 825.096 359.911C825.635 359.403 826.349 358.991 827.238 358.673C828.158 358.324 829.317 358.15 830.713 358.15C832.554 358.15 834.157 358.578 835.521 359.435C836.918 360.26 837.997 361.419 838.758 362.91C839.52 364.37 839.901 366.084 839.901 368.052V382.143H833.903V368.528C833.903 366.75 833.458 365.417 832.57 364.529C831.713 363.64 830.475 363.196 828.857 363.196C827.016 363.196 825.588 363.815 824.572 365.052C823.557 366.258 823.049 367.956 823.049 370.146V382.143H817.051Z" fill="#EFF6FF"/>
<path d="M0 132.5C0 59.529 59.1547 0 132.126 0V0C205.097 0 264.251 59.529 264.251 132.5V132.5C264.251 205.471 205.097 265 132.126 265V265C59.1547 265 0 205.471 0 132.5V132.5Z" fill="#3B82F6"/>
<path d="M60.2676 148.5V115.177H66.5515V128.934H78.9287V115.177H85.2126V148.5H78.9287V134.647H66.5515V148.5H60.2676ZM102.457 149.166C100.109 149.166 98.0301 148.675 96.2212 147.691C94.4439 146.675 93.0475 145.263 92.0319 143.454C91.0481 141.613 90.5562 139.455 90.5562 136.98V136.408C90.5562 133.933 91.0481 131.791 92.0319 129.982C93.0158 128.141 94.3963 126.729 96.1736 125.745C97.9508 124.729 100.014 124.222 102.362 124.222C104.679 124.222 106.694 124.745 108.408 125.793C110.122 126.808 111.455 128.236 112.407 130.077C113.359 131.886 113.835 133.996 113.835 136.408V138.455H96.6496C96.7131 140.074 97.3161 141.391 98.4586 142.407C99.6011 143.422 100.998 143.93 102.648 143.93C104.33 143.93 105.568 143.565 106.361 142.835C107.154 142.105 107.757 141.296 108.17 140.407L113.073 142.978C112.629 143.803 111.978 144.707 111.121 145.691C110.296 146.643 109.186 147.469 107.789 148.167C106.393 148.833 104.615 149.166 102.457 149.166ZM96.6972 133.981H107.742C107.615 132.616 107.059 131.521 106.075 130.696C105.123 129.871 103.87 129.458 102.315 129.458C100.696 129.458 99.4107 129.871 98.4586 130.696C97.5065 131.521 96.9194 132.616 96.6972 133.981ZM126.505 149.166C124.823 149.166 123.315 148.881 121.982 148.31C120.649 147.707 119.586 146.85 118.793 145.739C118.031 144.596 117.65 143.216 117.65 141.597C117.65 139.979 118.031 138.63 118.793 137.551C119.586 136.44 120.665 135.615 122.03 135.075C123.426 134.504 125.013 134.219 126.791 134.219H133.265V132.886C133.265 131.775 132.916 130.87 132.217 130.172C131.519 129.442 130.408 129.077 128.885 129.077C127.394 129.077 126.283 129.426 125.553 130.125C124.823 130.791 124.347 131.664 124.125 132.743L118.602 130.886C118.983 129.68 119.586 128.585 120.411 127.601C121.268 126.586 122.395 125.777 123.791 125.174C125.22 124.539 126.949 124.222 128.98 124.222C132.091 124.222 134.55 124.999 136.359 126.554C138.168 128.109 139.073 130.363 139.073 133.314V142.121C139.073 143.073 139.517 143.549 140.405 143.549H142.31V148.5H138.311C137.137 148.5 136.169 148.214 135.407 147.643C134.645 147.072 134.264 146.31 134.264 145.358V145.31H133.36C133.233 145.691 132.947 146.199 132.503 146.834C132.059 147.437 131.361 147.976 130.408 148.452C129.456 148.928 128.155 149.166 126.505 149.166ZM127.552 144.311C129.234 144.311 130.599 143.851 131.646 142.93C132.725 141.978 133.265 140.725 133.265 139.169V138.693H127.219C126.108 138.693 125.235 138.931 124.601 139.407C123.966 139.884 123.649 140.55 123.649 141.407C123.649 142.264 123.982 142.962 124.648 143.501C125.315 144.041 126.283 144.311 127.552 144.311ZM146.695 148.5V115.177H152.693V148.5H146.695ZM168.385 148.5C166.83 148.5 165.561 148.024 164.577 147.072C163.625 146.088 163.149 144.787 163.149 143.168V129.839H157.246V124.888H163.149V117.557H169.147V124.888H175.621V129.839H169.147V142.121C169.147 143.073 169.591 143.549 170.48 143.549H175.05V148.5H168.385ZM181.051 148.5V115.177H187.049V127.792H187.906C188.16 127.284 188.556 126.776 189.096 126.269C189.635 125.761 190.349 125.348 191.238 125.031C192.158 124.682 193.317 124.507 194.713 124.507C196.554 124.507 198.157 124.936 199.521 125.793C200.918 126.618 201.997 127.776 202.758 129.268C203.52 130.728 203.901 132.441 203.901 134.409V148.5H197.903V134.885C197.903 133.108 197.458 131.775 196.57 130.886C195.713 129.998 194.475 129.553 192.857 129.553C191.016 129.553 189.588 130.172 188.572 131.41C187.557 132.616 187.049 134.314 187.049 136.504V148.5H181.051Z" fill="#EFF6FF"/>
<path d="M922 410.5C922 322.411 993.488 251 1081.58 251V251C1169.67 251 1241.15 322.411 1241.15 410.5V410.5C1241.15 498.589 1169.67 570 1081.58 570V570C993.488 570 922 498.589 922 410.5V410.5Z" fill="#1E40AF"/>
<path d="M973.776 425V396.372H986.209C988.008 396.372 989.576 396.685 990.912 397.312C992.248 397.94 993.284 398.826 994.02 399.971C994.757 401.116 995.125 402.466 995.125 404.02V404.51C995.125 406.228 994.716 407.619 993.898 408.682C993.08 409.745 992.071 410.522 990.871 411.013V411.749C991.962 411.804 992.807 412.185 993.407 412.894C994.007 413.576 994.307 414.489 994.307 415.634V425H988.908V416.412C988.908 415.757 988.731 415.226 988.377 414.817C988.049 414.408 987.49 414.203 986.7 414.203H979.175V425H973.776ZM979.175 409.295H985.636C986.918 409.295 987.913 408.955 988.622 408.273C989.358 407.564 989.726 406.637 989.726 405.492V405.083C989.726 403.938 989.372 403.024 988.663 402.343C987.954 401.634 986.945 401.279 985.636 401.279H979.175V409.295ZM1009.02 425.573C1007.01 425.573 1005.22 425.15 1003.67 424.305C1002.14 423.432 1000.94 422.219 1000.07 420.665C999.221 419.084 998.799 417.229 998.799 415.103V414.612C998.799 412.485 999.221 410.645 1000.07 409.091C1000.91 407.51 1002.1 406.296 1003.62 405.451C1005.15 404.579 1006.92 404.142 1008.94 404.142C1010.93 404.142 1012.66 404.592 1014.14 405.492C1015.61 406.364 1016.75 407.591 1017.57 409.173C1018.39 410.727 1018.8 412.54 1018.8 414.612V416.371H1004.03C1004.09 417.761 1004.61 418.893 1005.59 419.765C1006.57 420.638 1007.77 421.074 1009.19 421.074C1010.63 421.074 1011.69 420.76 1012.38 420.133C1013.06 419.506 1013.58 418.811 1013.93 418.047L1018.14 420.256C1017.76 420.965 1017.2 421.742 1016.47 422.587C1015.76 423.405 1014.8 424.114 1013.6 424.714C1012.4 425.286 1010.88 425.573 1009.02 425.573ZM1004.07 412.526H1013.56C1013.45 411.354 1012.98 410.413 1012.13 409.704C1011.31 408.995 1010.24 408.641 1008.9 408.641C1007.51 408.641 1006.41 408.995 1005.59 409.704C1004.77 410.413 1004.27 411.354 1004.07 412.526ZM1029.68 425.573C1028.24 425.573 1026.94 425.327 1025.8 424.836C1024.65 424.318 1023.74 423.582 1023.06 422.628C1022.4 421.646 1022.08 420.46 1022.08 419.07C1022.08 417.679 1022.4 416.521 1023.06 415.594C1023.74 414.639 1024.67 413.93 1025.84 413.467C1027.04 412.976 1028.4 412.731 1029.93 412.731H1035.49V411.586C1035.49 410.631 1035.19 409.854 1034.59 409.254C1033.99 408.627 1033.04 408.314 1031.73 408.314C1030.45 408.314 1029.49 408.614 1028.86 409.214C1028.24 409.786 1027.83 410.536 1027.64 411.463L1022.89 409.868C1023.22 408.832 1023.74 407.891 1024.45 407.046C1025.18 406.174 1026.15 405.478 1027.35 404.96C1028.58 404.415 1030.06 404.142 1031.81 404.142C1034.48 404.142 1036.59 404.81 1038.15 406.146C1039.7 407.482 1040.48 409.418 1040.48 411.954V419.52C1040.48 420.338 1040.86 420.747 1041.62 420.747H1043.26V425H1039.82C1038.82 425 1037.98 424.755 1037.33 424.264C1036.68 423.773 1036.35 423.119 1036.35 422.301V422.26H1035.57C1035.46 422.587 1035.22 423.023 1034.84 423.569C1034.45 424.087 1033.85 424.55 1033.04 424.959C1032.22 425.368 1031.1 425.573 1029.68 425.573ZM1030.58 421.401C1032.03 421.401 1033.2 421.006 1034.1 420.215C1035.03 419.397 1035.49 418.32 1035.49 416.984V416.575H1030.3C1029.34 416.575 1028.59 416.78 1028.05 417.189C1027.5 417.598 1027.23 418.17 1027.23 418.906C1027.23 419.642 1027.51 420.242 1028.09 420.706C1028.66 421.169 1029.49 421.401 1030.58 421.401ZM1047.03 425V396.372H1052.18V425H1047.03ZM1068.11 425V396.372H1086.52V401.279H1073.51V408.109H1085.37V413.017H1073.51V420.092H1086.76V425H1068.11ZM1099.35 425.573C1096.7 425.573 1094.53 425 1092.84 423.855C1091.15 422.71 1090.13 421.074 1089.78 418.947L1094.52 417.72C1094.71 418.675 1095.02 419.424 1095.46 419.97C1095.92 420.515 1096.48 420.91 1097.14 421.156C1097.82 421.374 1098.55 421.483 1099.35 421.483C1100.55 421.483 1101.43 421.278 1102 420.869C1102.58 420.433 1102.86 419.901 1102.86 419.274C1102.86 418.647 1102.59 418.17 1102.04 417.843C1101.5 417.489 1100.63 417.202 1099.43 416.984L1098.28 416.78C1096.86 416.507 1095.57 416.139 1094.4 415.675C1093.22 415.185 1092.28 414.517 1091.58 413.671C1090.87 412.826 1090.51 411.736 1090.51 410.4C1090.51 408.382 1091.25 406.842 1092.72 405.778C1094.19 404.688 1096.13 404.142 1098.53 404.142C1100.79 404.142 1102.67 404.647 1104.17 405.656C1105.67 406.664 1106.65 407.987 1107.12 409.623L1102.33 411.095C1102.11 410.059 1101.66 409.323 1100.98 408.886C1100.33 408.45 1099.51 408.232 1098.53 408.232C1097.55 408.232 1096.8 408.409 1096.28 408.764C1095.76 409.091 1095.5 409.554 1095.5 410.154C1095.5 410.809 1095.77 411.299 1096.32 411.627C1096.86 411.926 1097.6 412.158 1098.53 412.322L1099.67 412.526C1101.2 412.799 1102.58 413.167 1103.8 413.631C1105.06 414.067 1106.04 414.707 1106.75 415.553C1107.48 416.371 1107.85 417.489 1107.85 418.906C1107.85 421.033 1107.08 422.682 1105.52 423.855C1103.99 425 1101.94 425.573 1099.35 425.573ZM1119.74 425C1118.4 425 1117.31 424.591 1116.47 423.773C1115.65 422.928 1115.24 421.81 1115.24 420.419V408.968H1110.17V404.715H1115.24V398.417H1120.39V404.715H1125.96V408.968H1120.39V419.52C1120.39 420.338 1120.78 420.747 1121.54 420.747H1125.46V425H1119.74ZM1136.92 425.573C1135.47 425.573 1134.18 425.327 1133.03 424.836C1131.89 424.318 1130.97 423.582 1130.29 422.628C1129.64 421.646 1129.31 420.46 1129.31 419.07C1129.31 417.679 1129.64 416.521 1130.29 415.594C1130.97 414.639 1131.9 413.93 1133.07 413.467C1134.27 412.976 1135.64 412.731 1137.16 412.731H1142.73V411.586C1142.73 410.631 1142.43 409.854 1141.83 409.254C1141.23 408.627 1140.27 408.314 1138.96 408.314C1137.68 408.314 1136.73 408.614 1136.1 409.214C1135.47 409.786 1135.06 410.536 1134.87 411.463L1130.13 409.868C1130.46 408.832 1130.97 407.891 1131.68 407.046C1132.42 406.174 1133.39 405.478 1134.59 404.96C1135.81 404.415 1137.3 404.142 1139.04 404.142C1141.72 404.142 1143.83 404.81 1145.38 406.146C1146.94 407.482 1147.72 409.418 1147.72 411.954V419.52C1147.72 420.338 1148.1 420.747 1148.86 420.747H1150.5V425H1147.06C1146.05 425 1145.22 424.755 1144.57 424.264C1143.91 423.773 1143.58 423.119 1143.58 422.301V422.26H1142.81C1142.7 422.587 1142.45 423.023 1142.07 423.569C1141.69 424.087 1141.09 424.55 1140.27 424.959C1139.45 425.368 1138.34 425.573 1136.92 425.573ZM1137.82 421.401C1139.26 421.401 1140.44 421.006 1141.34 420.215C1142.26 419.397 1142.73 418.32 1142.73 416.984V416.575H1137.53C1136.58 416.575 1135.83 416.78 1135.28 417.189C1134.74 417.598 1134.46 418.17 1134.46 418.906C1134.46 419.642 1134.75 420.242 1135.32 420.706C1135.9 421.169 1136.73 421.401 1137.82 421.401ZM1160.56 425C1159.22 425 1158.13 424.591 1157.28 423.773C1156.47 422.928 1156.06 421.81 1156.06 420.419V408.968H1150.99V404.715H1156.06V398.417H1161.21V404.715H1166.77V408.968H1161.21V419.52C1161.21 420.338 1161.59 420.747 1162.36 420.747H1166.28V425H1160.56ZM1179.96 425.573C1177.94 425.573 1176.16 425.15 1174.6 424.305C1173.08 423.432 1171.88 422.219 1171 420.665C1170.16 419.084 1169.74 417.229 1169.74 415.103V414.612C1169.74 412.485 1170.16 410.645 1171 409.091C1171.85 407.51 1173.04 406.296 1174.56 405.451C1176.09 404.579 1177.86 404.142 1179.88 404.142C1181.87 404.142 1183.6 404.592 1185.07 405.492C1186.55 406.364 1187.69 407.591 1188.51 409.173C1189.33 410.727 1189.74 412.54 1189.74 414.612V416.371H1174.97C1175.03 417.761 1175.54 418.893 1176.53 419.765C1177.51 420.638 1178.71 421.074 1180.13 421.074C1181.57 421.074 1182.63 420.76 1183.32 420.133C1184 419.506 1184.51 418.811 1184.87 418.047L1189.08 420.256C1188.7 420.965 1188.14 421.742 1187.4 422.587C1186.7 423.405 1185.74 424.114 1184.54 424.714C1183.34 425.286 1181.82 425.573 1179.96 425.573ZM1175.01 412.526H1184.5C1184.39 411.354 1183.91 410.413 1183.07 409.704C1182.25 408.995 1181.17 408.641 1179.84 408.641C1178.45 408.641 1177.34 408.995 1176.53 409.704C1175.71 410.413 1175.2 411.354 1175.01 412.526Z" fill="#EFF6FF"/>
</svg>
